# xmcd
#
# Track frame offsets:
#	150
#	17081
#	32629
#	50022
#	68454
#	88516
#	107234
#	119971
#	135852
#	149624
#	166306
#	183046
#	197651
#
# Disc length: 2850
#
# Revision: 1
# Processed by: cddbd v1.5.1PL0 Copyright (c) Steve Scherf et al.
# Submitted via: VisiTrax 2.9.5.180 - For more info visit www.synapsa.com
# Normalized: r0:DSETVAR1
#
DISCID=b10b200d
DTITLE=Various Artist - CDX 293 June 2002
DYEAR=2002
DGENRE=
TTITLE0=Dusty Drake - And then
TTITLE1=Danni Leigh - House of pain
TTITLE2=David Nail - memphis
TTITLE3=Tim McGraw - Unbroken
TTITLE4=Tift Merritt - Virginia, no one can warn you
TTITLE5=Ray Griff - A cool one
TTITLE6=Dave Dudley - Drivin' trains
TTITLE7=Royal Wade Kimes - In my land
TTITLE8=Michael E Tubbs - Lealous man
TTITLE9=Karly Stuart - Half a love
TTITLE10=Donna Nelson - Love you right back
TTITLE11=Jack Kapanka - She's got my heart
TTITLE12=J Michael Harter - Hard call to make
EXTD=
EXTT0=
EXTT1=
EXTT2=
EXTT3=
EXTT4=
EXTT5=
EXTT6=
EXTT7=
EXTT8=
EXTT9=
EXTT10=
EXTT11=
EXTT12=
PLAYORDER=
